<svg xmlns="http://www.w3.org/2000/svg" xmlns:ev="http://www.w3.org/2001/xml-events" xmlns:xlink="http://www.w3.org/1999/xlink" width="14in" height="816" class="st63" color-interpolation-filters="sRGB" viewBox="0 0 1008 612" xml:space="preserve"><title>EDKII Redfish Driver Stack Diagrams</title><style type="text/css">.st1,.st2,.st3{stroke-linecap:round;stroke-linejoin:round}.st1{fill:#fff;stroke:none;stroke-width:.75}.st2{stroke:#7f7f7f;stroke-width:4.5}.st3{fill:#a5a5a5;stroke:#000;stroke-width:1.5}.st4{fill:#000;font-family:Calibri;font-size:1.16666em;font-weight:700}.st5{font-size:.714294em}.st6{fill:#0070c0;stroke:#000;stroke-linecap:round;stroke-linejoin:round;stroke-width:1.5}.st7,.st8{fill:#fff;font-family:Calibri;font-size:1.16666em;font-weight:700}.st8{font-size:1.08334em}.st9{font-size:1em}.st10{font-size:.769226em}.st11{fill:#396;stroke-linecap:round;stroke-linejoin:round}.st11,.st12{stroke:#000;stroke-width:1.5}.st12,.st13{stroke-linecap:round;stroke-linejoin:round}.st12,.st13{fill:#fff}.st13{stroke:#0070c0;stroke-width:3}.st14{fill:#000;font-family:Calibri;font-size:.833336em;font-weight:700}.st15{marker-end:url(#mrkr4-79);stroke:#000;stroke-linecap:round;stroke-linejoin:round;stroke-width:1.9}.st16{fill:#000;fill-opacity:1;stroke:#000;stroke-opacity:1;stroke-width:.36964980544747}.st17,.st18{stroke-linecap:round;stroke-linejoin:round}.st17{marker-end:url(#mrkr4-79);stroke:#000;stroke-dasharray:5.7,5.7;stroke-width:1.9}.st18{marker-end:url(#mrkr2-98);marker-start:url(#mrkr2-96);stroke:#fbd3d0;stroke-width:7.5}.st19{fill:#fbd3d0;fill-opacity:1;stroke-opacity:1;stroke-width:.74850299401198}.st19,.st20,.st21{stroke:#fbd3d0}.st20{marker-end:url(#mrkr2-112);marker-start:url(#mrkr2-110);stroke-linecap:round;stroke-linejoin:round;stroke-width:7.5}.st21{fill:#fbd3d0;fill-opacity:1;stroke-opacity:1;stroke-width:.80645161290323}.st22{marker-end:url(#mrkr4-118);stroke:#000;stroke-linecap:round;stroke-linejoin:round;stroke-width:1.9}.st23{fill:#000;fill-opacity:1;stroke:#000;stroke-opacity:1;stroke-width:.42986425339367}.st24,.st25{stroke:#000;stroke-linecap:round;stroke-linejoin:round}.st24{marker-end:url(#mrkr4-124);stroke-width:1.9}.st25{fill:#ff1a1a;stroke-width:1.5}.st26{fill:#fff;font-family:Calibri;font-size:1.00001em;font-weight:700}.st27,.st28{fill:none;stroke-linecap:round;stroke-linejoin:round}.st27{stroke:#000;stroke-dasharray:4.5,4.5;stroke-width:1.5}.st28{stroke:none;stroke-width:.75}.st29{fill:#000;font-family:Calibri;font-size:1.00001em;font-weight:700}.st30,.st31{stroke:#fbd3d0}.st30{marker-end:url(#mrkr2-151);marker-start:url(#mrkr2-149);stroke-linecap:round;stroke-linejoin:round;stroke-width:8}.st31{fill:#fbd3d0;fill-opacity:1;stroke-opacity:1;stroke-width:.76045627376426}.st32{fill:#000;font-family:Arial;font-size:1.33333em;font-style:italic;font-weight:700}.st33{fill:#fff;stroke:#7f7f7f;stroke-linecap:round;stroke-linejoin:round;stroke-width:.24}.st34{fill:#a5a5a5;font-family:Arial;font-size:.916672em}.st35{fill:#f2dcda;stroke:#a5a5a5;stroke-linecap:round;stroke-linejoin:round;stroke-width:1.5}.st36{fill:#a5a5a5;font-family:Calibri;font-size:1.00001em;font-weight:700}.st37{fill:none;stroke:#a5a5a5;stroke-dasharray:4.5,4.5;stroke-linecap:round;stroke-linejoin:round;stroke-width:1.5}.st38{fill:#000;font-family:Arial;font-size:.666664em}.st39{font-family:Microsoft JhengHei;font-size:1em}.st40{fill:#dbeef3;stroke:#d8d8d8;stroke-linecap:round;stroke-linejoin:round;stroke-width:1.5}.st41{fill:#000;font-family:Arial;font-size:1.66667em;font-weight:700}.st42{fill:none;stroke:#000;stroke-dasharray:2.25,2.25;stroke-linecap:round;stroke-linejoin:round;stroke-width:.75}.st43{visibility:visible}.st44,.st45{fill:none;stroke-linecap:round;stroke-linejoin:round}.st44{filter:url(#filter_3.3333334922791);stroke:#000;stroke-opacity:.4}.st45{stroke:#bfbfbf;stroke-width:.75}.st46{fill:none;stroke:#a5a5a5;stroke-width:1.5}.st46,.st47,.st48{stroke-linecap:round;stroke-linejoin:round}.st47{fill:#fff;stroke:#a5a5a5;stroke-width:1.5}.st48{marker-end:url(#mrkr4-118);stroke:#000;stroke-dasharray:5.7,5.7;stroke-width:1.9}.st49,.st50{stroke:#a5a5a5}.st49{marker-end:url(#mrkr4-251);stroke-dasharray:5.7,5.7;stroke-linecap:round;stroke-linejoin:round;stroke-width:1.9}.st50{fill:#a5a5a5;fill-opacity:1;stroke-opacity:1;stroke-width:.42986425339367}.st51,.st52{stroke:#bfbfbf}.st51{marker-end:url(#mrkr4-257);stroke-dasharray:5.7,5.7;stroke-linecap:round;stroke-linejoin:round;stroke-width:1.9}.st52{fill:#bfbfbf;fill-opacity:1;stroke-opacity:1;stroke-width:.42986425339367}.st53{marker-end:url(#mrkr4-265);marker-start:url(#mrkr2-149);stroke-linecap:round;stroke-linejoin:round;stroke-width:8}.st53,.st54,.st55{stroke:#fbd3d0}.st54{marker-end:url(#mrkr2-295);marker-start:url(#mrkr2-293);stroke-linecap:round;stroke-linejoin:round;stroke-width:4.25}.st55{fill:#fbd3d0;fill-opacity:1;stroke-opacity:1;stroke-width:.62776957163959}.st56{marker-end:url(#mrkr2-313);stroke:#d8d8d8;stroke-linecap:round;stroke-linejoin:round;stroke-width:1.9}.st57{fill:#d8d8d8;fill-opacity:1;stroke-opacity:1;stroke-width:.36964980544747}.st57,.st58,.st59{stroke:#d8d8d8}.st58{marker-end:url(#mrkr4-319);stroke-linecap:round;stroke-linejoin:round;stroke-width:.75}.st59{fill:#d8d8d8;fill-opacity:1;stroke-opacity:1;stroke-width:.22935779816514}.st60{stroke:#000;stroke-dasharray:0,9;stroke-linecap:round;stroke-linejoin:round;stroke-width:3}.st61,.st62{fill:#000;font-family:Calibri;font-size:.833336em}.st62{font-family:Arial;font-size:.916672em;font-weight:700}.st63{fill:none;fill-rule:evenodd;font-size:12px;overflow:visible;stroke-linecap:square;stroke-miterlimit:3}</style><defs id="Markers"><g id="lend4"><path d="M 2 1 L 0 0 L 2 -1 L 2 1" style="stroke:none"/></g><marker id="mrkr4-79" class="st16" markerUnits="strokeWidth" orient="auto" overflow="visible" refX="-5.221"><use transform="scale(-2.7052631578947,-2.7052631578947)" xlink:href="#lend4"/></marker><g id="lend2"><path d="M 1 1 L 0 0 L 1 -1 L 1 1" style="stroke:none"/></g><marker id="mrkr2-96" class="st19" markerUnits="strokeWidth" orient="auto" overflow="visible" refX="1.288"><use transform="scale(1.336)" xlink:href="#lend2"/></marker><marker id="mrkr2-98" class="st19" markerUnits="strokeWidth" orient="auto" overflow="visible" refX="-1.288"><use transform="scale(-1.336,-1.336)" xlink:href="#lend2"/></marker><marker id="mrkr2-110" class="st21" markerUnits="strokeWidth" orient="auto" overflow="visible" refX="1.192"><use transform="scale(1.24)" xlink:href="#lend2"/></marker><marker id="mrkr2-112" class="st21" markerUnits="strokeWidth" orient="auto" overflow="visible" refX="-1.192"><use transform="scale(-1.24,-1.24)" xlink:href="#lend2"/></marker><marker id="mrkr4-118" class="st23" markerUnits="strokeWidth" orient="auto" overflow="visible" refX="-4.463"><use transform="scale(-2.3263157894737,-2.3263157894737)" xlink:href="#lend4"/></marker><marker id="mrkr4-124" class="st23" markerUnits="strokeWidth" orient="auto" overflow="visible" refX="-4.653"><use transform="scale(-2.3263157894737,-2.3263157894737)" xlink:href="#lend4"/></marker><marker id="mrkr2-149" class="st31" markerUnits="strokeWidth" orient="auto" overflow="visible" refX="1.27"><use transform="scale(1.315)" xlink:href="#lend2"/></marker><marker id="mrkr2-151" class="st31" markerUnits="strokeWidth" orient="auto" overflow="visible" refX="-1.27"><use transform="scale(-1.315,-1.315)" xlink:href="#lend2"/></marker><marker id="mrkr4-251" class="st50" markerUnits="strokeWidth" orient="auto" overflow="visible" refX="-4.463"><use transform="scale(-2.3263157894737,-2.3263157894737)" xlink:href="#lend4"/></marker><marker id="mrkr4-257" class="st52" markerUnits="strokeWidth" orient="auto" overflow="visible" refX="-4.463"><use transform="scale(-2.3263157894737,-2.3263157894737)" xlink:href="#lend4"/></marker><marker id="mrkr4-265" class="st31" markerUnits="strokeWidth" orient="auto" overflow="visible" refX="-2.585"><use transform="scale(-1.315,-1.315)" xlink:href="#lend4"/></marker><marker id="mrkr2-293" class="st55" markerUnits="strokeWidth" orient="auto" overflow="visible" refX="1.508"><use transform="scale(1.5929411764706)" xlink:href="#lend2"/></marker><marker id="mrkr2-295" class="st55" markerUnits="strokeWidth" orient="auto" overflow="visible" refX="-1.593"><use transform="scale(-1.5929411764706,-1.5929411764706)" xlink:href="#lend2"/></marker><marker id="mrkr2-313" class="st57" markerUnits="strokeWidth" orient="auto" overflow="visible" refX="-2.516"><use transform="scale(-2.7052631578947,-2.7052631578947)" xlink:href="#lend2"/></marker><marker id="mrkr4-319" class="st59" markerUnits="strokeWidth" orient="auto" overflow="visible" refX="-8.72"><use transform="scale(-4.36,-4.36)" xlink:href="#lend4"/></marker></defs><defs id="Filters"><filter id="filter_3.3333334922791"><feGaussianBlur stdDeviation="3.333"/></filter></defs><g><title>VBackground-1</title><g id="shape1-1"><title>Solid</title><rect width="1008" height="612" x="0" y="0" class="st1"/></g></g><g><title>Page-1</title><g id="shape1-3" transform="translate(45,-342)"><title>Sheet.1</title><path d="M0 612 L751.5 612" class="st2"/></g><g id="shape2-6" transform="translate(211.5,-279)"><title>Sheet.2</title><desc>RedfishLib (libredfish)</desc><rect width="135" height="36" x="0" y="576" class="st3"/><text x="37.36" y="591" class="st4">RedfishLib<tspan x="44.78" class="st5" dy="1.5em">(</tspan><tspan class="st5">libredfish</tspan><tspan class="st5">)</tspan></text></g><g id="shape3-12" transform="translate(616.5,-283.5)"><title>Sheet.3</title><desc>JsonLib (jansson)</desc><rect width="153" height="36" x="0" y="576" class="st3"/><text x="55.44" y="591" class="st4">JsonLib<tspan x="57.6" class="st5" dy="1.5em">(</tspan><tspan class="st5">jansson</tspan><tspan class="st5">)</tspan></text></g><g id="shape4-18" transform="translate(211.5,-216)"><title>Sheet.4</title><desc>EFI Redfish Discover (UEFI Driver Model)</desc><rect width="135" height="36" x="0" y="576" class="st6"/><text x="9.2" y="591" class="st7">EFI Redfish Discover<tspan x="26.49" class="st5" dy="1.5em">(</tspan><tspan class="st5">UEFI Driver Model</tspan><tspan class="st5">)</tspan></text></g><g id="shape5-24" transform="translate(211.5,-153)"><title>Sheet.5</title><desc>EFI REST EX (UEFI Driver Model)</desc><rect width="135" height="36" x="0" y="576" class="st6"/><text x="34.44" y="591" class="st7">EFI REST EX<tspan x="26.49" class="st5" dy="1.5em">(</tspan><tspan class="st5">UEFI Driver Model</tspan><tspan class="st5">)</tspan></text></g><g id="shape6-30" transform="translate(409.5,-279)"><title>Sheet.6</title><desc>EFI REST JSON to C Structure (DXE Driver)</desc><rect width="153" height="45" x="0" y="567" class="st6"/><text x="26.52" y="579.75" class="st8">EFI REST JSON to C <tspan x="51.33" class="st9" dy="1.058em">Structure</tspan><tspan x="51.09" class="st10" dy="1.25em">(</tspan><tspan class="st10">DXE Driver</tspan><tspan class="st10">)</tspan></text></g><g id="shape7-37" transform="translate(409.5,-225)"><title>Sheet.7</title><desc>EDKII Redfish Credential (DXE Driver)</desc><rect width="153" height="36" x="0" y="576" class="st6"/><text x="11.19" y="590.75" class="st8">EDKII Redfish Credential<tspan x="51.09" class="st10" dy="1.3em">(</tspan><tspan class="st10">DXE Driver</tspan><tspan class="st10">)</tspan></text></g><g id="shape8-43" transform="translate(409.5,-171)"><title>Sheet.8</title><desc>EDKII Platform Content Coding Library</desc><rect width="153" height="36" x="0" y="576" class="st11"/><text x="13.91" y="590.75" class="st8">EDKII Platform Content <tspan x="37.7" class="st9" dy="1em">Coding Library</tspan></text></g><g id="shape9-47" transform="translate(409.5,-117)"><title>Sheet.9</title><desc>EDKII Network Stacks (UEFI Driver Model)</desc><rect width="153" height="36" x="0" y="576" class="st6"/><text x="18.73" y="590.75" class="st8">EDKII Network Stacks<tspan x="35.49" class="st10" dy="1.3em">(</tspan><tspan class="st10">UEFI Driver Model</tspan><tspan class="st10">)</tspan></text></g><g id="shape10-53" transform="translate(409.5,-54)"><title>Sheet.10</title><desc>EDKII Redfish Host Interface (DXE Driver)</desc><rect width="153" height="45" x="0" y="567" class="st6"/><text x="26.68" y="579.75" class="st8">EDKII Redfish Host <tspan x="52.19" class="st9" dy="1em">Interface</tspan><tspan x="51.09" class="st10" dy="1.3em">(</tspan><tspan class="st10">DXE Driver</tspan><tspan class="st10">)</tspan></text></g><g id="shape11-60" transform="translate(211.5,-94.5)"><title>Sheet.11</title><desc>SMBIOS Type 42</desc><rect width="135" height="27" x="0" y="585" class="st12"/><text x="19.92" y="602.7" class="st4">SMBIOS Type 42</text></g><g id="shape12-63" transform="translate(616.5,-72)"><title>Sheet.12</title><desc>RedfishPlatformConfig.efi</desc><rect width="153" height="27" x="0" y="585" class="st13"/><text x="22.93" y="601.5" class="st14">RedfishPlatformConfig.efi</text></g><g id="shape13-66" transform="translate(616.5,-225)"><title>Sheet.13</title><desc>Platform Redfish Credential Library</desc><rect width="153" height="36" x="0" y="576" class="st11"/><text x="31.21" y="590.75" class="st8">Platform Redfish <tspan x="28.36" class="st9" dy="1em">Credential Library</tspan></text></g><g id="shape14-70" transform="translate(618.25,-162)"><title>Sheet.14</title><desc>Platform Redfish Host Interface Library</desc><rect width="153" height="36" x="0" y="576" class="st11"/><text x="17.3" y="590.75" class="st8">Platform Redfish Host <tspan x="31.97" class="st9" dy="1em">Interface Library</tspan></text></g><g id="shape20-74" transform="translate(108.912,1066.03) rotate(-150.255)"><title>Sheet.20</title><path d="M0 605.85 C5.2 601.6 11.37 602.58 17.02 603.9 C34.96 608.09 47.6 615.63 63.3 610.33 L63.63 610.17" class="st15"/></g><g id="shape26-80" transform="translate(798.806,378) rotate(90)"><title>Sheet.26</title><path d="M0 587.31 C27.48 618.4 91.67 620.3 119.28 595.08 L119.51 594.81" class="st15"/></g><g id="shape27-85" transform="translate(616.5,980.172) rotate(180)"><title>Sheet.27</title><path d="M0 611.17 C8.24 606.04 18.13 605.86 27 607.8 C32.73 609.05 38.03 611.18 43.74 611.86 L44.1 611.83" class="st17"/></g><g id="shape34-90" transform="translate(958.5,315) rotate(90)"><title>Sheet.34</title><path d="M4.28 603.34 L4.44 603.02 C6.15 598.55 7.91 593.52 10.26 589.58 C10.52 589.15 10.79 588.72 11.06 588.3 C24.98 566.86 47.13 561.26 67.61 562.5 C93.1 564.05 116.01 576.2 123.87 602.21 L123.94 602.56" class="st18"/></g><g id="shape35-99" transform="translate(868.595,10.4444) rotate(59.7436)"><title>Sheet.35</title><path d="M0 604.43 C17.43 596.28 35.82 595.77 52.17 599.33 C75.61 604.44 94.87 617.9 116.02 609.38 L116.34 609.21" class="st15"/></g><g id="shape42-104" transform="translate(511.956,-120.094) rotate(15.9454)"><title>Sheet.42</title><path d="M8.92 601.65 L9.28 601.63 C11.78 602.35 14.16 603.61 16.51 604.78 C30.56 611.79 43.18 615.49 57.81 607.46 L58.11 607.26" class="st20"/></g><g id="shape43-113" transform="translate(662.85,-296.1) rotate(9.46232)"><title>Sheet.43</title><path d="M0 610.4 C16.69 599.74 30.24 612.49 46.06 612.08 L46.42 612.01" class="st22"/></g><g id="shape44-119" transform="translate(891,396) rotate(90)"><title>Sheet.44</title><path d="M0 612 L18.16 612" class="st24"/></g><g id="group45-125" transform="translate(846,-319.5)"><title>Can</title><desc>Redfish Service</desc><g id="shape46-126"><title>Sheet.46</title><path d="M0 600.75 A29.25 11.25 -180 1 0 58.5 600.75 L58.5 560.25 L0 560.25 L0 600.75 Z" class="st25"/></g><g id="shape45-128"><ellipse cx="29.25" cy="560.25" class="st25" rx="29.25" ry="11.25"/><text x="10.65" y="590" class="st26">Redfish <tspan x="11.42" class="st9" dy="1.2em">Service</tspan></text></g></g><g id="shape47-132" transform="translate(837,-315)"><title>Rounded Rectangle</title><path d="M7.65 612 L68.85 612 A7.64987 7.64987 -180 0 0 76.5 604.35 L76.5 511.65 A7.64987 7.64987 -180 0 0 68.85 504 L7.65 504 A7.64987 7.64987 -180 0 0 -0 511.65 L0 604.35 A7.64987 7.64987 -180 0 0 7.65 612 Z" class="st27"/></g><g id="shape48-134" transform="translate(837,-315)"><title>Rounded Rectangle.48</title><path d="M12.6 612 L113.4 612 A12.5998 12.5998 -180 0 0 126 599.4 L126 552.6 A12.5998 12.5998 -180 0 0 113.4 540 L12.6 540 A12.5998 12.5998 -180 0 0 -0 552.6 L0 599.4 A12.5998 12.5998 -180 0 0 12.6 612 Z" class="st27"/></g><g id="shape49-136" transform="translate(846,-391.5)"><title>Sheet.49</title><desc>On Network</desc><rect width="58.5" height="27" x="0" y="585" class="st28"/><text x="21.97" y="594.9" class="st29">On <tspan x="7.49" class="st9" dy="1.2em">Network</tspan></text></g><g id="shape51-140" transform="translate(913.5,-333)"><title>Sheet.51</title><desc>BMC</desc><rect width="45" height="27" x="0" y="585" class="st28"/><text x="10.72" y="602.1" class="st29">BMC</text></g><g id="shape53-143" transform="translate(300.223,21.2932) rotate(-29.9221)"><title>Sheet.53</title><path d="M8.6 531.2 L8.91 531.39 C45.12 553.68 83.03 571.57 122.32 588.41 C144.61 597.96 167.35 607.17 190.07 610.52 C222.93 615.38 255.74 608 284.87 592.4 C310.1 578.89 332.55 559.23 354.13 533.89 L354.36 533.61" class="st30"/></g><g id="shape54-152" transform="translate(1142.22,727.062) rotate(119.385)"><title>Sheet.54</title><path d="M0 601.33 C1.8 603.71 4.18 606.09 6.63 607.87 C38.72 631.29 82.4 552.5 108.8 592.25 L108.97 592.57" class="st17"/></g><g id="shape55-157" transform="translate(189,531) rotate(-90)"><title>Sheet.55</title><path d="M0 580.5 C3.72 583.62 7.79 589.31 12.01 593.96 C44.21 629.47 84.97 604.53 101.41 588.39 L101.64 588.12" class="st15"/></g><g id="shape56-162" transform="translate(45,-305)"><title>Sheet.56</title><desc>EDKII Redfish Foundation</desc><rect width="152" height="20" x="0" y="592" class="st28"/><text x="4" y="597.2" class="st32">EDKII Redfish <tspan x="4" class="st9" dy="1.2em">Foundation</tspan></text></g><g id="shape57-166" transform="translate(45,-351)"><title>Sheet.57</title><desc>EDKII Redfish Client</desc><rect width="152" height="20" x="0" y="592" class="st28"/><text x="4" y="597.2" class="st32">EDKII Redfish <tspan x="4" class="st9" dy="1.2em">Client</tspan></text></g><g id="shape58-170" transform="translate(54,-198)"><title>Rounded Rectangle.58</title><desc>SSDP over UDP</desc><path d="M4.5 612 L103.5 612 A4.49993 4.49993 -180 0 0 108 607.5 L108 589.5 A4.49993 4.49993 -180 0 0 103.5 585 L4.5 585 A4.49993 4.49993 -180 0 0 0 589.5 L0 607.5 A4.49993 4.49993 -180 0 0 4.5 612 Z" class="st33"/><text x="13.65" y="601.81" class="st34">SSDP over UDP</text></g><g id="group60-173" transform="translate(76.5,-117)"><title>Can.60</title><desc>Redfish Service</desc><g id="shape61-174"><title>Sheet.61</title><path d="M0 600.75 A29.25 11.25 -180 1 0 58.5 600.75 L58.5 560.25 L0 560.25 L0 600.75 Z" class="st35"/></g><g id="shape60-176"><ellipse cx="29.25" cy="560.25" class="st35" rx="29.25" ry="11.25"/><text x="10.65" y="590" class="st36">Redfish <tspan x="11.42" class="st9" dy="1.2em">Service</tspan></text></g></g><g id="shape62-180" transform="translate(67.5,-90)"><title>Rounded Rectangle.62</title><path d="M7.65 612 L68.85 612 A7.64987 7.64987 -180 0 0 76.5 604.35 L76.5 525.15 A7.64987 7.64987 -180 0 0 68.85 517.5 L7.65 517.5 A7.64987 7.64987 -180 0 0 -0 525.15 L0 604.35 A7.64987 7.64987 -180 0 0 7.65 612 Z" class="st37"/></g><g id="shape63-182" transform="translate(81,-90)"><title>Sheet.63</title><desc>BMC</desc><rect width="45" height="27" x="0" y="585" class="st28"/><text x="10.72" y="602.1" class="st36">BMC</text></g><g id="shape64-185" transform="translate(614.75,-135)"><title>Sheet.64</title><desc>Build up Redfish Host Interface</desc><rect width="152" height="20" x="0" y="592" class="st28"/><text x="4" y="597.2" class="st38">Build up Redfish Host Interface</text></g><g id="shape66-188" transform="translate(806,-85.5)"><title>Sheet.66</title><desc>EFI Shell Application, which builds up Redfish Host interface...</desc><rect width="152" height="45" x="0" y="567" class="st28"/><text x="4" y="577.1" class="st38">EFI Shell Application, which<tspan x="4" class="st9" dy="1.2em">builds up Redfish Host interface</tspan><tspan x="4" class="st9" dy="1.05em">for EDK</tspan>2 emulator platform<tspan x="4" class="st9" dy="1.375em">(</tspan>EmulatorPkg<tspan class="st39">）</tspan></text></g><g id="shape69-195" transform="translate(612,-202.5)"><title>Sheet.69</title><desc>Get Authentication</desc><rect width="152" height="20" x="0" y="592" class="st28"/><text x="4" y="597.2" class="st38">Get Authentication</text></g><g id="shape71-198" transform="translate(396,-486)"><title>Sheet.71</title><desc>RedfishBiosDxe</desc><rect width="261" height="36" x="0" y="576" class="st40"/><text x="88.66" y="597.25" class="st8">RedfishBiosDxe</text></g><g id="shape72-201" transform="translate(396,-423)"><title>Sheet.72</title><desc>RedfishBootInfoDxe</desc><rect width="261" height="36" x="0" y="576" class="st40"/><text x="76.33" y="597.25" class="st8">RedfishBootInfoDxe</text></g><g id="shape73-204" transform="translate(396,-441)"><title>Sheet.73</title><desc>EDKII Redfish Feature DXE Drivers</desc><rect width="261" height="63" x="0" y="549" class="st28"/><text x="25.48" y="574.5" class="st41">EDKII Redfish Feature <tspan x="72.69" class="st9" dy="1.2em">DXE Drivers</tspan></text></g><g id="shape75-208" transform="translate(369,-405)"><title>Rectangle</title><path d="M0 612 L315 612 L315 477 L0 477 L0 612 Z" class="st42"/></g><g id="shape76-210" transform="translate(324,-387)"><title>Rounded Rectangle.76</title><g id="shadow76-211" class="st43"><path d="M17.22 612 L378.78 612 A17.2171 17.2171 -180 0 0 396 594.78 L396 458.22 A17.2171 17.2171 -180 0 0 378.78 441 L17.22 441 A17.2171 17.2171 -180 0 0 0 458.22 L0 594.78 A17.2171 17.2171 -180 0 0 17.22 612 Z" class="st44" transform="matrix(1.02,0,0,1.02,-3.96,-10.53)"/></g><path d="M17.22 612 L378.78 612 A17.2171 17.2171 -180 0 0 396 594.78 L396 458.22 A17.2171 17.2171 -180 0 0 378.78 441 L17.22 441 A17.2171 17.2171 -180 0 0 0 458.22 L0 594.78 A17.2171 17.2171 -180 0 0 17.22 612 Z" class="st45"/></g><g id="shape77-215" transform="translate(166.5,-396)"><title>Sheet.77</title><desc>EDKII RedfishConfigDriver (UEF Driver Model)</desc><rect width="135" height="45" x="0" y="567" class="st6"/><text x="52.11" y="580" class="st7">EDKII <tspan x="9.37" class="st9" dy="1em">RedfishConfigDriver</tspan><tspan x="27.82" class="st5" dy="1.25em">(</tspan><tspan class="st5">UEF Driver Model</tspan><tspan class="st5">)</tspan></text></g><g id="shape79-222" transform="translate(807.666,295.676) rotate(97.9072)"><title>Sheet.79</title><path d="M0 579.17 C20.49 576.51 31.18 592.91 46.37 602.26 C77.86 621.65 128.73 610.76 156.32 586.48 L156.58 586.22" class="st15"/></g><g id="shape80-227" transform="translate(198,-522)"><title>Rounded Rectangle.80</title><path d="M4.7 612 L103.3 612 A4.69558 4.69558 -180 0 0 108 607.3 L108 589.7 A4.69558 4.69558 -180 0 0 103.3 585 L4.7 585 A4.69558 4.69558 -180 0 0 0 589.7 L0 607.3 A4.69558 4.69558 -180 0 0 4.7 612 Z" class="st46"/></g><g id="shape81-229" transform="translate(189,-513)"><title>Rounded Rectangle.81</title><path d="M4.7 612 L103.3 612 A4.69558 4.69558 -180 0 0 108 607.3 L108 589.7 A4.69558 4.69558 -180 0 0 103.3 585 L4.7 585 A4.69558 4.69558 -180 0 0 0 589.7 L0 607.3 A4.69558 4.69558 -180 0 0 4.7 612 Z" class="st47"/></g><g id="shape90-231" transform="translate(-119.157,659.986) rotate(-144.162)"><title>Sheet.90</title><path d="M0 603.18 C4.15 607.13 9.94 610.11 15.61 611.34 C29.37 614.32 42.44 606.94 53.45 596.49 C61.26 589.09 68.03 580.16 77.42 577.8 C88.41 575.03 102.97 581.29 102.88 593.34 L102.78 593.68" class="st15"/></g><g id="shape93-236" transform="translate(221.899,727.905) rotate(-165.964)"><title>Sheet.93</title><path d="M0 606.51 C15.17 612.77 29.52 612.61 44.18 611.2 C63.42 609.36 83.21 605.38 102.5 605.92 L102.86 605.95" class="st48"/></g><g id="shape99-241" transform="translate(139.354,700.857) rotate(-157.751)"><title>Sheet.99</title><path d="M0 606.51 C14.58 612.77 28.36 612.61 42.45 611.2 C60.82 609.37 79.72 605.43 98.14 605.91 L98.5 605.94" class="st48"/></g><g id="shape100-246" transform="translate(5.09146,624.711) rotate(-143.13)"><title>Sheet.100</title><path d="M0 606.51 C12.27 612.77 23.86 612.61 35.72 611.2 C50.71 609.43 66.12 605.66 81.18 605.88 L81.54 605.91" class="st49"/></g><g id="shape108-252" transform="translate(-63.7494,572.249) rotate(-135)"><title>Wavy connector 2</title><path d="M0 612 L11.04 616.08 L21.88 618.76 L32.52 620.05 L51.73 619.09 L60.91 617.82 L70.5 616.14 L80.5 614.04 L80.85 613.96" class="st51"/></g><g id="shape128-258" transform="translate(74.6891,-268.274) rotate(-20.6744)"><title>Sheet.128</title><path d="M7.05 596.86 L7.3 596.6 C41.41 565.41 84.23 581.81 125.37 593.78 C147.72 600.28 169.57 605.47 191.7 609.19 C205.94 611.58 220.3 613.37 234.93 610.75 L235.27 610.64" class="st53"/></g><g id="shape129-266" transform="translate(913.572,626.328) rotate(137.291)"><title>Sheet.129</title><path d="M0 570.67 C12.35 560.49 25.47 555.25 38.41 555.6 C60.3 556.19 81.63 572.81 103.52 591.21 C116.04 601.73 128.75 612.82 140.98 612 C156.61 610.95 171.47 590.42 165.19 577.2 L164.94 576.93" class="st22"/></g><g id="shape130-271" transform="translate(961.972,521.508) rotate(125.838)"><title>Sheet.130</title><path d="M0 537.17 C5.61 533.31 11.98 533.39 17.86 534.13 C66.05 540.21 81.59 590.84 108.93 606.62 C129.47 618.49 156.66 610.69 176.83 592.27 C191.47 578.9 202.41 559.94 201.92 545.76 L201.83 545.41" class="st22"/></g><g id="shape141-276" transform="translate(524.018,816.193) rotate(-153.905)"><title>Sheet.141</title><path d="M0 558.08 C-1.1 562.68 -4.17 567.34 -5.65 572.12 C-8.55 581.49 -5.37 591.37 -0.33 598.33 C22.05 629.26 81.08 602.84 124.62 577.22 C154.8 559.45 177.54 542.06 207.45 539.15 C220.74 537.86 235.46 539.43 242.28 549.86 L242.41 550.2" class="st22"/></g><g id="shape142-281" transform="translate(24.75,-556.75)"><title>Sheet.142</title><rect width="22.5" height="7.5" x="0" y="604.5" class="st6"/></g><g id="shape143-283" transform="translate(24.75,-539.5)"><title>Sheet.143</title><rect width="22.5" height="7.5" x="0" y="604.5" class="st3"/></g><g id="shape144-285" transform="translate(24.75,-521.5)"><title>Sheet.144</title><rect width="22.5" height="7.5" x="0" y="604.5" class="st11"/></g><g id="shape145-287" transform="translate(22.5,-506.5)"><title>Sheet.145</title><path d="M6.41 612 L6.77 612 L20.23 612" class="st54"/></g><g id="shape147-296" transform="translate(52.25,-551.5)"><title>Sheet.147</title><desc>EDKII Open Source</desc><rect width="152" height="20" x="0" y="592" class="st28"/><text x="4" y="605.6" class="st38">EDKII Open Source</text></g><g id="shape148-299" transform="translate(51.75,-533.5)"><title>Sheet.148</title><desc>Other Open Source</desc><rect width="152" height="20" x="0" y="592" class="st28"/><text x="4" y="605.6" class="st38">Other Open Source</text></g><g id="shape149-302" transform="translate(51.75,-515.5)"><title>Sheet.149</title><desc>OEM EDKII Library</desc><rect width="152" height="20" x="0" y="592" class="st28"/><text x="4" y="605.6" class="st38">OEM EDKII Library</text></g><g id="shape150-305" transform="translate(51.75,-496.5)"><title>Sheet.150</title><desc>Redfish Payload Flow</desc><rect width="152" height="20" x="0" y="592" class="st28"/><text x="4" y="605.6" class="st38">Redfish Payload Flow</text></g><g id="shape151-308" transform="translate(461.424,927.834) rotate(155.556)"><title>Sheet.151</title><path d="M0 603.97 C7.28 610.16 18.09 613.87 26.44 611.05 C35.57 607.96 41.76 597.08 50.21 600.96 L50.5 601.17" class="st56"/></g><g id="shape153-314" transform="translate(711.673,514.612) rotate(99.4623)"><title>Sheet.153</title><path d="M0 612 L7.15 612" class="st58"/></g><g id="shape154-320" transform="translate(-161.042,-388.162) rotate(-39.2894)"><title>Sheet.154</title><path d="M0 612 L21.32 612" class="st60"/></g><g id="shape155-323" transform="translate(162,-499.5)"><title>Rounded Rectangle.82</title><path d="M4.7 612 L103.3 612 A4.69558 4.69558 -180 0 0 108 607.3 L108 589.7 A4.69558 4.69558 -180 0 0 103.3 585 L4.7 585 A4.69558 4.69558 -180 0 0 0 589.7 L0 607.3 A4.69558 4.69558 -180 0 0 4.7 612 Z" class="st12"/></g><g id="shape156-325" transform="translate(153,-486)"><title>Rounded Rectangle.83</title><desc>EDKII Redfish Config Handler Protocol</desc><path d="M4.7 612 L103.3 612 A4.69558 4.69558 -180 0 0 108 607.3 L108 589.7 A4.69558 4.69558 -180 0 0 103.3 585 L4.7 585 A4.69558 4.69558 -180 0 0 0 589.7 L0 607.3 A4.69558 4.69558 -180 0 0 4.7 612 Z" class="st12"/><text x="13.06" y="595.5" class="st61">EDKII Redfish Config <tspan x="19.55" class="st9" dy="1.2em">Handler Protocol</tspan></text></g><g id="shape157-329" transform="translate(24.75,-315)"><title>Sheet.157</title><desc>[1]</desc><rect width="22.5" height="20" x="0" y="592" class="st28"/><text x="4" y="605.39" class="st62">[1]</text></g><g id="shape158-332" transform="translate(24.75,-360)"><title>Sheet.158</title><desc>[2]</desc><rect width="22.5" height="20" x="0" y="592" class="st28"/><text x="4" y="605.39" class="st62">[2]</text></g><g id="shape159-335" transform="translate(207,-250)"><title>Sheet.159</title><desc>[3]</desc><rect width="22.5" height="20" x="0" y="592" class="st28"/><text x="4" y="605.39" class="st62">[3]</text></g><g id="shape160-338" transform="translate(207,-188)"><title>Sheet.160</title><desc>[4]</desc><rect width="22.5" height="20" x="0" y="592" class="st28"/><text x="4" y="605.39" class="st62">[4]</text></g><g id="shape161-341" transform="translate(562.5,-250)"><title>Sheet.161</title><desc>[5]</desc><rect width="22.5" height="20" x="0" y="592" class="st28"/><text x="4" y="605.39" class="st62">[5]</text></g><g id="shape162-344" transform="translate(562.5,-54)"><title>Sheet.162</title><desc>[6]</desc><rect width="22.5" height="20" x="0" y="592" class="st28"/><text x="4" y="605.39" class="st62">[6]</text></g><g id="shape163-347" transform="translate(207,-75.5)"><title>Sheet.163</title><desc>[7]</desc><rect width="22.5" height="20" x="0" y="592" class="st28"/><text x="4" y="605.39" class="st62">[7]</text></g><g id="shape164-350" transform="translate(562.5,-142)"><title>Sheet.164</title><desc>[8]</desc><rect width="22.5" height="20" x="0" y="592" class="st28"/><text x="4" y="605.39" class="st62">[8]</text></g><g id="shape165-353" transform="translate(562.5,-306)"><title>Sheet.165</title><desc>[9]</desc><rect width="22.5" height="20" x="0" y="592" class="st28"/><text x="4" y="605.39" class="st62">[9]</text></g><g id="shape166-356" transform="translate(612,-259)"><title>Sheet.166</title><desc>[10]</desc><rect width="31.5" height="20" x="0" y="592" class="st28"/><text x="4" y="605.39" class="st62">[10]</text></g><g id="shape167-359" transform="translate(612,-196)"><title>Sheet.167</title><desc>[11]</desc><rect width="31.5" height="20" x="0" y="592" class="st28"/><text x="4" y="605.39" class="st62">[11]</text></g><g id="shape168-362" transform="translate(560.25,-189)"><title>Sheet.168</title><desc>[12]</desc><rect width="31.5" height="20" x="0" y="592" class="st28"/><text x="4" y="605.39" class="st62">[12]</text></g><g id="shape169-365" transform="translate(207,-313)"><title>Sheet.169</title><desc>[13]</desc><rect width="31.5" height="20" x="0" y="592" class="st28"/><text x="4" y="605.39" class="st62">[13]</text></g><g id="shape170-368" transform="translate(612,-318.5)"><title>Sheet.170</title><desc>[14]</desc><rect width="31.5" height="20" x="0" y="592" class="st28"/><text x="4" y="605.39" class="st62">[14]</text></g><g id="shape171-371" transform="translate(139.5,-422)"><title>Sheet.171</title><desc>[15]</desc><rect width="31.5" height="20" x="0" y="592" class="st28"/><text x="4" y="605.39" class="st62">[15]</text></g><g id="shape172-374" transform="translate(135,-511)"><title>Sheet.172</title><desc>[16]</desc><rect width="31.5" height="20" x="0" y="592" class="st28"/><text x="4" y="605.39" class="st62">[16]</text></g><g id="shape173-377" transform="translate(326.25,-557)"><title>Sheet.173</title><desc>[17]</desc><rect width="31.5" height="20" x="0" y="592" class="st28"/><text x="4" y="605.39" class="st62">[17]</text></g><g id="shape174-380" transform="translate(54,-225)"><title>Sheet.174</title><desc>[18]</desc><rect width="31.5" height="20" x="0" y="592" class="st28"/><text x="4" y="605.39" class="st62">[18]</text></g><g id="shape175-383" transform="translate(895.5,-295)"><title>Sheet.175</title><desc>[19]</desc><rect width="31.5" height="20" x="0" y="592" class="st28"/><text x="4" y="605.39" class="st62">[19]</text></g><g id="shape176-386" transform="translate(612,-99)"><title>Sheet.176</title><desc>[20]</desc><rect width="31.5" height="20" x="0" y="592" class="st28"/><text x="4" y="605.39" class="st62">[20]</text></g></g></svg>